<?xml version="1.0" standalone="no"?>
<!DOCTYPE svg PUBLIC "-//W3C//DTD SVG 20010904//EN"
 "http://www.w3.org/TR/2001/REC-SVG-20010904/DTD/svg10.dtd">
<svg version="1.0" xmlns="http://www.w3.org/2000/svg"
 width="360.000000pt" height="484.000000pt" viewBox="0 0 360.000000 484.000000"
 preserveAspectRatio="xMidYMid meet">

<g transform="translate(0.000000,484.000000) scale(0.100000,-0.100000)"
fill="#000000" stroke="none">
<path d="M2590 4749 c-114 -47 -135 -68 -145 -144 -8 -65 1 -81 50 -91 27 -5
34 -12 39 -36 5 -26 9 -29 28 -24 13 4 31 8 40 9 10 1 51 35 92 75 l75 73 29
-15 c16 -8 68 -57 116 -107 l87 -93 -53 -13 c-59 -15 -80 -31 -114 -85 -22
-34 -28 -38 -68 -38 -58 0 -118 -22 -178 -67 l-51 -37 7 47 c8 53 -2 101 -45
204 -16 40 -28 76 -27 80 2 4 -5 17 -14 28 -10 11 -28 36 -40 55 -34 52 -87
73 -191 78 -106 5 -261 -21 -293 -50 -30 -27 -35 -66 -23 -175 10 -93 10 -97
-15 -145 -26 -50 -26 -68 -1 -68 15 0 31 -60 22 -84 -3 -8 1 -20 9 -26 8 -7
14 -25 14 -41 0 -32 10 -41 60 -49 l35 -6 -27 -18 c-22 -14 -33 -16 -65 -7
-121 34 -235 -13 -303 -124 -56 -92 -78 -111 -137 -118 -97 -11 -174 -71 -228
-176 -29 -58 -28 -58 -180 -65 -60 -2 -156 -14 -212 -25 -57 -12 -152 -22
-215 -23 l-112 -3 -62 135 c-48 104 -67 136 -83 138 -29 5 -36 -21 -22 -80 7
-34 8 -55 1 -69 -16 -29 -46 -24 -59 11 -12 36 -26 38 -43 6 -13 -24 -13 -24
-68 42 -65 77 -84 92 -102 74 -9 -9 -5 -25 20 -73 18 -34 30 -64 27 -67 -2 -3
-22 11 -45 31 -38 35 -70 41 -70 13 0 -29 76 -100 135 -127 33 -15 69 -37 80
-49 25 -27 144 -102 215 -134 48 -22 174 -48 415 -87 170 -28 379 -15 480 30
47 21 80 27 210 37 91 7 135 26 213 92 60 51 46 57 127 -54 25 -34 45 -66 45
-72 0 -6 19 -68 42 -138 l42 -128 -17 -174 c-15 -148 -20 -179 -40 -206 -18
-25 -22 -45 -22 -102 -1 -64 -6 -80 -48 -165 -66 -131 -86 -219 -97 -429 -5
-96 -14 -226 -20 -287 -12 -130 0 -215 44 -301 14 -27 53 -130 86 -228 34 -98
86 -231 115 -295 64 -137 105 -271 108 -351 2 -52 -1 -60 -28 -88 -18 -18 -82
-53 -154 -84 -68 -30 -136 -63 -150 -75 l-26 -20 25 -21 c18 -15 34 -19 58
-16 22 3 30 1 26 -6 -5 -7 5 -9 31 -4 21 4 65 9 97 11 33 3 87 9 121 16 33 6
114 11 179 13 75 1 122 6 129 13 20 20 11 86 -25 179 -19 49 -49 147 -66 219
-30 121 -32 140 -29 280 1 82 1 176 -1 207 -3 69 11 94 44 76 11 -6 91 -61
176 -121 406 -290 471 -347 533 -464 44 -85 117 -257 117 -277 0 -8 -21 -32
-46 -55 -58 -51 -51 -65 27 -56 42 5 59 4 59 -5 0 -19 71 -2 98 23 35 32 40
45 62 162 12 58 30 136 41 172 32 102 10 185 -55 216 -17 8 -58 27 -91 42 -78
35 -137 85 -258 220 -73 81 -108 129 -132 182 -37 80 -99 149 -167 184 -23 13
-88 42 -143 65 l-100 41 3 69 c2 62 11 108 42 224 5 19 10 114 10 210 l0 175
30 35 c103 119 127 212 92 360 -11 47 -37 120 -56 163 -57 125 -45 198 53 321
22 27 49 77 61 110 46 131 86 223 153 354 67 132 70 140 77 232 9 105 21 143
54 158 11 6 51 24 88 41 91 42 169 128 231 254 57 117 65 156 40 219 -15 39
-35 60 -113 123 -52 41 -126 91 -165 110 -125 63 -377 165 -404 164 -14 0 -69
-18 -121 -40z"/>
</g>
</svg>
